<svg xmlns="http://www.w3.org/2000/svg" viewBox="0 0 325.44 324"><defs><style>.cls-1{fill:#fff;}.cls-2{fill:#1e1c26;}.cls-3{fill:#70a4d8;}.cls-10,.cls-11,.cls-12,.cls-13,.cls-14,.cls-15,.cls-16,.cls-17,.cls-18,.cls-19,.cls-20,.cls-21,.cls-22,.cls-4,.cls-5,.cls-6,.cls-7,.cls-8,.cls-9{fill:none;stroke:#1e1c26;stroke-linejoin:round;stroke-width:1.5px;}.cls-5{stroke-dasharray:1.99 0.99;}.cls-6{stroke-dasharray:2.02 1.01;}.cls-7{stroke-dasharray:2.01 1.01;}.cls-8{stroke-dasharray:1.99 1;}.cls-9{stroke-dasharray:1.31 0.66;}.cls-10{stroke-dasharray:2.03 1.01;}.cls-11{stroke-dasharray:2.02 1.01;}.cls-12{stroke-dasharray:1 0.5;}.cls-13{stroke-dasharray:2.03 1.01;}.cls-14{stroke-dasharray:1.31 0.66;}.cls-15{stroke-dasharray:2.04 1.02;}.cls-16{stroke-dasharray:2.02 1.01;}.cls-17{stroke-dasharray:1.99 1;}.cls-18{stroke-dasharray:2.29 1.14;}.cls-19{stroke-dasharray:2.03 1.01;}.cls-20{stroke-dasharray:2 1;}.cls-21{stroke-dasharray:1.88 0.94;}.cls-22{stroke-dasharray:2.03 1.01;}</style></defs><title>Align</title><g id="Layer_2" data-name="Layer 2"><g id="Layer_1-2" data-name="Layer 1"><rect class="cls-1" width="324" height="324"/><polygon class="cls-2" points="133 141 133 129 126 129 126 141 122.52 141 129.5 153.86 136.48 141 133 141"/><polygon class="cls-2" points="202 141 202 129 195 129 195 141 191.52 141 198.5 153.86 205.48 141 202 141"/><path class="cls-2" d="M117.91,227,75,151.23v3.08L115.5,226H78V199.08a3,3,0,0,1-2.12-.86,2.85,2.85,0,0,1-.88-2.05V263H74V136H70V263H69V196.18a3,3,0,0,1-3,2.9V226H28.53L69,154.31v-3.08L26.12,227H26v10H54.08A12,12,0,0,1,66,249v14H64v27H81V263H78V249a12,12,0,0,1,11.93-12H118V227ZM66,232H30v-1H66Zm48,0H78v-1h36Z"/><path class="cls-2" d="M28,231H2v-6H28Zm0,1H2v4H28Z"/><path class="cls-2" d="M325,231H299v-6h26Zm0,1H299v4h26Z"/><path class="cls-2" d="M302.4,227,259,151.23v3.08L300,226H262V199.08a3,3,0,0,1-2.12-.86,2.85,2.85,0,0,1-.88-2.05V263h0V136h-4V263h-1V196.18a3,3,0,0,1-3,2.9V226H213l41-71.69v-3.08L210.61,227H211v10h28.08A12,12,0,0,1,251,249v14h-3v27h17V263h-3V249a12,12,0,0,1,11.93-12H302V227ZM251,232H215v-1h36Zm47,0H262v-1h36Z"/><path class="cls-3" d="M210.16,96,167,21.19v3.08L207.75,95H170V68.08a3,3,0,0,1-2.12-.86,2.85,2.85,0,0,1-.88-2V132h-1V6h-4V132h-1V65.18a3,3,0,0,1-3,2.9V95H120.78L161,24.27V21.19L118.37,96H118v11h28.08A12,12,0,0,1,158,119v14h-2v27h17V133h-3V119a12,12,0,0,1,11.93-12H210V96ZM159,102H123v-1h36Zm47,0H170v-1h36Z"/><polyline class="cls-4" points="210.5 227.5 210.5 226.5 210.16 226.5 209.66 225.63"/><line class="cls-5" x1="209.17" y1="224.76" x2="168.24" y2="152.53"/><polyline class="cls-4" points="167.99 152.1 167.5 151.23 167.5 152.23"/><polyline class="cls-6" points="167.5 153.23 167.5 156.31 206 224.19"/><polyline class="cls-4" points="206.25 224.63 206.74 225.5 205.74 225.5"/><line class="cls-7" x1="204.74" y1="225.5" x2="172" y2="225.5"/><polyline class="cls-4" points="171.5 225.5 170.5 225.5 170.5 224.5"/><line class="cls-8" x1="170.5" y1="223.5" x2="170.5" y2="200.08"/><path class="cls-4" d="M170.5,199.58v-1a3.1,3.1,0,0,1-1-.16"/><path class="cls-9" d="M168.92,198.14a2.79,2.79,0,0,1-.54-.42,3,3,0,0,1-.57-.76"/><path class="cls-4" d="M167.68,196.66a2.72,2.72,0,0,1-.18-1v1"/><polyline class="cls-10" points="167.5 197.69 167.5 198.58 167.5 260.99"/><polyline class="cls-4" points="167.5 261.5 167.5 262.5 166.5 262.5 166.5 261.5"/><polyline class="cls-11" points="166.5 260.49 166.5 192.96 166.5 137"/><polyline class="cls-4" points="166.5 136.5 166.5 135.5 165.5 135.5"/><line class="cls-12" x1="165" y1="135.5" x2="163.75" y2="135.5"/><polyline class="cls-4" points="163.5 135.5 162.5 135.5 162.5 136.5"/><polyline class="cls-11" points="162.5 137.51 162.5 198.07 162.5 261"/><polyline class="cls-4" points="162.5 261.5 162.5 262.5 161.5 262.5 161.5 261.5"/><line class="cls-13" x1="161.5" y1="260.49" x2="161.5" y2="197.18"/><path class="cls-4" d="M161.5,196.68v-1a2.7,2.7,0,0,1-.18,1"/><path class="cls-14" d="M161,197.24a3,3,0,0,1-1.24,1.06"/><path class="cls-4" d="M159.49,198.42a3.21,3.21,0,0,1-1,.16v1"/><line class="cls-8" x1="158.5" y1="200.58" x2="158.5" y2="224"/><polyline class="cls-4" points="158.5 224.5 158.5 225.5 157.5 225.5"/><line class="cls-15" x1="156.48" y1="225.5" x2="123.29" y2="225.5"/><polyline class="cls-4" points="122.78 225.5 121.78 225.5 122.28 224.63"/><polyline class="cls-16" points="122.78 223.76 161.5 156.31 161.5 152.73"/><polyline class="cls-4" points="161.5 152.23 161.5 151.23 161 152.09"/><line class="cls-17" x1="160.51" y1="152.96" x2="119.11" y2="225.2"/><polyline class="cls-4" points="118.86 225.63 118.37 226.5 118.5 226.5 118.5 227.5"/><polyline class="cls-18" points="118.5 228.64 118.5 230.96 118.5 232.03 118.5 234.93"/><polyline class="cls-4" points="118.5 235.5 118.5 236.5 119.5 236.5"/><path class="cls-19" d="M120.52,236.5h26.06a12,12,0,0,1,11.92,12V261"/><polyline class="cls-4" points="158.5 261.5 158.5 262.5 157.5 262.5"/><polyline class="cls-4" points="156.5 262.5 155.5 262.5 155.5 263.5"/><line class="cls-20" x1="155.5" y1="264.5" x2="155.5" y2="288"/><polyline class="cls-4" points="155.5 288.5 155.5 289.5 156.5 289.5"/><polyline class="cls-21" points="157.44 289.5 158.31 289.5 158.32 289.5 169.69 289.5 169.69 289.5 171.03 289.5"/><polyline class="cls-4" points="171.5 289.5 172.5 289.5 172.5 288.5"/><line class="cls-20" x1="172.5" y1="287.5" x2="172.5" y2="264"/><polyline class="cls-4" points="172.5 263.5 172.5 262.5 171.5 262.5"/><polyline class="cls-4" points="171.5 262.5 170.5 262.5 170.5 261.5"/><path class="cls-22" d="M170.5,260.49v-12a12,12,0,0,1,11.93-12H209"/><polyline class="cls-4" points="209.5 236.5 210.5 236.5 210.5 235.5"/><line class="cls-18" x1="210.5" y1="234.36" x2="210.5" y2="228.07"/><polyline class="cls-4" points="157.5 231.5 158.5 231.5 158.5 232.5 157.5 232.5"/><line class="cls-20" x1="156.5" y1="232.5" x2="124" y2="232.5"/><polyline class="cls-4" points="123.5 232.5 122.5 232.5 122.5 231.5 123.5 231.5"/><line class="cls-20" x1="124.5" y1="231.5" x2="157" y2="231.5"/><polyline class="cls-4" points="205.5 231.5 206.5 231.5 206.5 232.5 205.5 232.5"/><line class="cls-20" x1="204.5" y1="232.5" x2="172" y2="232.5"/><polyline class="cls-4" points="171.5 232.5 170.5 232.5 170.5 231.5 171.5 231.5"/><line class="cls-20" x1="172.5" y1="231.5" x2="205" y2="231.5"/><rect class="cls-3" x="1" y="290" width="324" height="34"/><path class="cls-3" d="M325.44,290.15c-9,0-9-4.32-18-4.32s-9,4.32-18,4.32-9-4.32-18-4.32-9,4.32-18,4.32-9-4.32-18-4.32-9,4.32-18,4.32-9-4.32-18-4.32-9,4.32-18,4.32-9-4.32-18-4.32-9,4.32-18,4.32-9-4.32-18-4.32-9,4.32-18,4.32-9-4.32-18-4.32-9,4.32-18,4.32-9-4.32-18-4.32-9,4.32-18,4.32-9-4.32-18-4.32-9,4.32-18,4.32"/></g></g></svg>