<svg xmlns="http://www.w3.org/2000/svg" viewBox="0 0 325 324"><defs><style>.cls-1{fill:#fff;}.cls-2{fill:#1e1c26;}.cls-3{fill:#70a4d8;}</style></defs><title>Fill</title><g id="Layer_2" data-name="Layer 2"><g id="Layer_1-2" data-name="Layer 1"><rect class="cls-1" width="324" height="324"/><path class="cls-1" d="M169.24,129.3h30.22v22.88H169.24a49.46,49.46,0,0,0-19.89,4.12c-13.14,5.78-22.58,17.06-24.23,30.36a38.89,38.89,0,0,0-.25,4.22v68.51H101.94V190.88a39,39,0,0,1,.2-4.22C104,160.89,123.32,139.4,149.35,132A73.78,73.78,0,0,1,169.24,129.3Z"/><rect class="cls-1" x="206.59" y="129.3" width="12.29" height="22.88"/><path class="cls-2" d="M163.91,86.17a5.43,5.43,0,0,1-.2,1.54H149.54a5.11,5.11,0,0,1-.21-1.54,3.6,3.6,0,0,1,.1-1,7.25,7.25,0,0,1,14.38,0A3.6,3.6,0,0,1,163.91,86.17Z"/><path class="cls-3" d="M149.34,110.75v10.67c-1,.21-2.06.52-3,.77V110.75Z"/><path class="cls-3" d="M201.58,129.3v22.88h12.29V129.3ZM149.35,132c-26,7.36-45.35,28.85-47.21,54.62a39,39,0,0,0-.2,4.22v68.51h22.93V190.88a38.89,38.89,0,0,1,.25-4.22c1.65-13.3,11.09-24.58,24.23-30.36a49.46,49.46,0,0,1,19.89-4.12h30.22V129.3H169.24A73.78,73.78,0,0,0,149.35,132Zm-40,119.62a1.35,1.35,0,0,1-1.29,1.29,1.31,1.31,0,0,1-1.29-1.29V217a1.28,1.28,0,0,1,1.29-1.3,1.31,1.31,0,0,1,1.29,1.3Zm4.84-48.41a1.28,1.28,0,0,1-1.29,1.29,1.31,1.31,0,0,1-1.28-1.29V185.42a1.31,1.31,0,0,1,1.28-1.29,1.28,1.28,0,0,1,1.29,1.29Zm5.31,20.46a1.3,1.3,0,0,1-1.29,1.28,1.26,1.26,0,0,1-1.28-1.28V195.62a1.26,1.26,0,0,1,1.28-1.28,1.3,1.3,0,0,1,1.29,1.28Zm20.15-72.4a28.49,28.49,0,0,0-17.31,17.31,1.34,1.34,0,0,1-1.24.87,1.51,1.51,0,0,1-.41-.1,1.25,1.25,0,0,1-.77-1.65,31.07,31.07,0,0,1,18.85-18.85,1.29,1.29,0,1,1,.88,2.42Zm25.7-9.49H154.54a1.31,1.31,0,0,1-1.28-1.33,1.27,1.27,0,0,1,1.28-1.24h10.82a1.27,1.27,0,0,1,1.3,1.24A1.32,1.32,0,0,1,165.36,141.82Zm27.18,3.82A1.31,1.31,0,0,1,191.3,147h-14a1.37,1.37,0,0,1-1.34-1.34,1.32,1.32,0,0,1,1.34-1.24h14A1.25,1.25,0,0,1,192.54,145.64Zm-14-10.61a1.26,1.26,0,0,1-1.24,1.28H157a1.29,1.29,0,1,1,0-2.57h20.3A1.27,1.27,0,0,1,178.51,135Z"/><rect class="cls-2" x="74.52" y="272.59" width="76.83" height="11.59" rx="3.24" ry="3.24"/><rect class="cls-2" x="74.73" y="258.39" width="76.83" height="11.59" rx="3.24" ry="3.24"/><path class="cls-2" d="M169.24,119h30.22v10.3H169.24A73.78,73.78,0,0,0,149.35,132c-26,7.36-45.35,28.85-47.21,54.62a39,39,0,0,0-.2,4.22v68.51H91.63V190.88c0-1.39.05-2.84.16-4.22h-.16v-56a19.86,19.86,0,0,1,19.86-19.86h34.82v-14h20.6v22.31C167.68,119,168.47,119,169.24,119Z"/><path class="cls-2" d="M169.24,152.18h30.22v10.31H169.24a38.38,38.38,0,0,0-19.89,5.41c-7.27,4.33-12.42,11-13.76,18.76a21.88,21.88,0,0,0-.42,4.22v68.51h-10.3V190.88a38.89,38.89,0,0,1,.25-4.22c1.65-13.3,11.09-24.58,24.23-30.36A49.46,49.46,0,0,1,169.24,152.18Z"/><polygon class="cls-1" points="229.18 119 229.18 162.49 206.59 162.49 206.59 152.18 218.88 152.18 218.88 129.3 206.59 129.3 206.59 119 229.18 119"/><path class="cls-2" d="M189.69,74.32a14,14,0,0,0-9.94,4.12l-6.34,6.34a1.26,1.26,0,0,1-.83.36H141.4V99h31.18a14.16,14.16,0,0,0,9.95-4.12l6.34-6.34a1.17,1.17,0,0,1,.82-.36h52.45V74.32Zm49.87,11.3H189.69a3.52,3.52,0,0,0-2.63,1.14l-6.39,6.33a11.17,11.17,0,0,1-8.09,3.35H144V87.71h28.61a3.7,3.7,0,0,0,2.63-1.08l6.34-6.39a11.42,11.42,0,0,1,8.14-3.35h49.87Z"/><path class="cls-1" d="M223.13,114.92v54.75s32.52,5.58,101.87,62.92V52C255.65,109.35,223.13,114.92,223.13,114.92Z"/><path class="cls-3" d="M325,88.82V52c-71.88,57.34-106.12,62.91-106.12,62.91v19.42C229.8,133.8,278.31,129,325,88.82Z"/><path class="cls-3" d="M218.88,150.26v19.41s34.24,5.58,106.12,62.92V195.77C278.31,155.58,229.8,150.79,218.88,150.26Z"/><path class="cls-3" d="M218.88,135.22v14.16c14.68.78,60.33,5.94,106.12,38.83V96.38C279.21,129.28,233.56,134.44,218.88,135.22Z"/><rect class="cls-2" x="201.58" y="109.81" width="22.57" height="64.2" rx="2.63" ry="2.63"/><rect class="cls-2" x="1" y="284.18" width="324" height="39.82"/></g></g></svg>