<svg xmlns="http://www.w3.org/2000/svg" viewBox="0 0 550.51 160.61"><defs><style>.cls-1{fill:#70a4d8;}.cls-2{fill:#a9a8a8;}.cls-3{fill:#d0d1d1;}.cls-4{fill:none;}</style></defs><title>Asset 3</title><g id="Layer_2" data-name="Layer 2"><g id="Layer_1-2" data-name="Layer 1"><path class="cls-1" d="M170.15,53.92h11a5.73,5.73,0,0,0,2.27,4.68c1.41,1,3.54,1.54,6.37,1.54a9.59,9.59,0,0,0,5-1.08A3.4,3.4,0,0,0,196.53,56q0-2.8-6.59-4.21c-1.8-.38-3.22-.7-4.28-1q-8-2.05-11.17-4.85a9.69,9.69,0,0,1-3.12-7.58,12.22,12.22,0,0,1,4.56-10q4.57-3.69,12.38-3.69,8.26,0,13,3.67a13.18,13.18,0,0,1,5,10.35H195.58a5.09,5.09,0,0,0-2-4.06,8.36,8.36,0,0,0-5.21-1.44,9.15,9.15,0,0,0-4.68,1A3.12,3.12,0,0,0,182.17,37q0,2.48,8.22,4.36l3,.68q8.22,1.93,11.23,4.67c2,1.81,3,4.38,3,7.69q0,7-4.95,10.69t-14.38,3.67q-8.53,0-13.34-3.83a12.71,12.71,0,0,1-4.82-10.53Z"/><path class="cls-1" d="M217.79,81V71.89c.35,0,.72.09,1.1.11s.87,0,1.48,0c1,0,3,0,4.08-1a6.05,6.05,0,0,0,1.63-4.6,2.85,2.85,0,0,0-.08-.57,5.64,5.64,0,0,0-.15-.57l-14-39.15h12.13l8.67,29.72,8.46-29.72h11.59S240.93,60.46,237,71.89c-1.26,3.64-3.08,6.22-6,7.83S218.65,81.12,217.79,81Z"/><path class="cls-1" d="M259.54,67.34V11.52h11V67.34Z"/><path class="cls-1" d="M292,67.34l-14.82-41.2h12.2l8.45,29.57,8.53-29.57H318l-14.75,41.2Z"/><path class="cls-1" d="M349.65,54.83h11a17.61,17.61,0,0,1-6.72,10.22,20.39,20.39,0,0,1-12.34,3.69q-8.94,0-14.17-6t-5.23-16.28q0-10.12,5.15-16t14.1-5.83q9.46,0,14.63,5.74t5.15,16.35c0,.78,0,1.37,0,1.76a9.59,9.59,0,0,1-.09,1.12H333.58c.15,3.24.94,5.67,2.37,7.32a7.73,7.73,0,0,0,6.16,2.46,8.72,8.72,0,0,0,4.66-1.12A7.56,7.56,0,0,0,349.65,54.83ZM333.58,42.4H349.8a9.46,9.46,0,0,0-2.21-6.35,7.81,7.81,0,0,0-5.94-2.17A7.4,7.4,0,0,0,336,36.07,10.21,10.21,0,0,0,333.58,42.4Z"/><path class="cls-1" d="M369.81,67.34V26.14H380v7a16.4,16.4,0,0,1,5-6.23,11.75,11.75,0,0,1,6.86-2l1,0a4,4,0,0,1,.59.06l0,11.18h-3.68q-4.5,0-6.78,2.35c-1.52,1.56-2.27,3.89-2.27,7V67.34Z"/><path class="cls-2" d="M197.34,116.72h10.88q-.69,7.84-5.73,12.4t-13,4.55q-9,0-14.08-5.86t-5.09-16.2q0-10.31,5.21-16.17t14.34-5.85q8,0,12.83,4.24t5.4,11.83H197.19a8.26,8.26,0,0,0-2.31-5A6.87,6.87,0,0,0,190,98.87a6.75,6.75,0,0,0-6.12,3.23c-1.36,2.14-2,5.37-2,9.66q0,6,2.1,9.15a6.79,6.79,0,0,0,6.05,3.2,6.63,6.63,0,0,0,4.92-1.85A9.7,9.7,0,0,0,197.34,116.72Z"/><path class="cls-2" d="M212.29,111.61q0-10.27,5.57-16.15t15.31-5.87q9.71,0,15.29,5.87t5.59,16.15q0,10.31-5.59,16.18t-15.29,5.88q-9.73,0-15.31-5.88T212.29,111.61Zm11.18,0q0,6.14,2.52,9.47a9.31,9.31,0,0,0,14.29,0q2.52-3.33,2.52-9.47t-2.5-9.42a9.37,9.37,0,0,0-14.31,0Q223.47,105.51,223.47,111.61Z"/><path class="cls-2" d="M259.66,132.26V91.07h10.8V96a14.92,14.92,0,0,1,5.45-4.49,16.12,16.12,0,0,1,7-1.5q6.81,0,10.21,3.54t3.39,10.67v28.08h-11v-24.9q0-4.42-1.49-6.33c-1-1.26-2.63-1.89-4.87-1.89a8.25,8.25,0,0,0-6.18,2.33,8.68,8.68,0,0,0-2.27,6.35v24.44Z"/><path class="cls-2" d="M301.52,118.85h11a5.79,5.79,0,0,0,2.27,4.68q2.13,1.53,6.37,1.53a9.6,9.6,0,0,0,5-1.08,3.39,3.39,0,0,0,1.76-3q0-2.81-6.6-4.21c-1.79-.37-3.22-.7-4.28-1-5.35-1.36-9.08-3-11.16-4.85a9.66,9.66,0,0,1-3.13-7.58,12.25,12.25,0,0,1,4.57-10q4.57-3.69,12.37-3.69,8.26,0,13,3.68a13.19,13.19,0,0,1,5,10.34H327a5.13,5.13,0,0,0-2-4,8.38,8.38,0,0,0-5.21-1.44,9.11,9.11,0,0,0-4.68.94,3.15,3.15,0,0,0-1.54,2.85q0,2.46,8.23,4.35c1.26.28,2.26.51,3,.69q8.22,1.93,11.24,4.66t3,7.69q0,7-4.94,10.69t-14.39,3.68q-8.52,0-13.34-3.83a12.73,12.73,0,0,1-4.81-10.54Z"/><path class="cls-2" d="M380.75,91.07v41.19H370v-4.89a15.36,15.36,0,0,1-5.47,4.5,16.21,16.21,0,0,1-7,1.49q-6.79,0-10.18-3.56t-3.39-10.65V91.07h11V116q0,4.4,1.47,6.27t4.89,1.87a8.22,8.22,0,0,0,6.16-2.33,8.64,8.64,0,0,0,2.29-6.34V91.07Z"/><path class="cls-2" d="M388.59,132.26V76.44h11v55.82Z"/><path class="cls-2" d="M426,132.57c-1,0-2.22.07-3.62.13s-2.29.09-2.67.09q-6.33,0-8.66-2.36c-1.56-1.58-2.33-4.7-2.33-9.35V98.8h-5.46V91.07h5.46V79.81h10.91V91.07H426V98.8h-6.37v22.81a2.54,2.54,0,0,0,.72,2.15,5.72,5.72,0,0,0,3,.51H426Z"/><path class="cls-2" d="M430.1,86.48v-10h11v10Zm0,45.78V91.07h11v41.19Z"/><path class="cls-2" d="M448.81,132.26V91.07h10.8V96a14.92,14.92,0,0,1,5.45-4.49,16.12,16.12,0,0,1,7-1.5q6.81,0,10.21,3.54t3.39,10.67v28.08h-11v-24.9q0-4.42-1.49-6.33t-4.88-1.89a8.22,8.22,0,0,0-6.17,2.33,8.68,8.68,0,0,0-2.28,6.35v24.44Z"/><path class="cls-2" d="M492.5,136.24l12.05,0a4.93,4.93,0,0,0,2.18,3.11,8.33,8.33,0,0,0,4.42,1q5.16,0,7.2-2.18c1.36-1.46,2-4.14,2-8.06v-3.67a11.14,11.14,0,0,1-4.53,4.41,15.21,15.21,0,0,1-7,1.42,15.93,15.93,0,0,1-12.81-5.7q-4.82-5.7-4.81-15.18,0-10,4.72-15.9a15.42,15.42,0,0,1,12.71-5.89,14.76,14.76,0,0,1,7.11,1.59A12.15,12.15,0,0,1,520.62,96v-5h10.46v38.46a31.08,31.08,0,0,1-1.21,9.9,12.6,12.6,0,0,1-4.13,5.72,17.47,17.47,0,0,1-6.35,2.94,34.79,34.79,0,0,1-8.77,1q-8.26,0-13-3.37A12,12,0,0,1,492.5,136.24Zm10-25.24q0,5.81,2.33,8.91a8.66,8.66,0,0,0,13.3,0q2.29-3.1,2.3-9.06c0-3.76-.79-6.68-2.37-8.74A8,8,0,0,0,511.3,99a7.61,7.61,0,0,0-6.52,3.14Q502.47,105.32,502.47,111Z"/><path class="cls-3" d="M19.42,41.7v90.56H110V41.7ZM110,71.89H79.8v30.19H49.61V71.89H79.8V41.7H110Z"/><polygon class="cls-1" points="79.8 11.52 79.8 41.7 109.98 41.7 109.98 71.89 140.17 71.89 140.17 11.52 79.8 11.52"/><polygon class="cls-1" points="79.8 102.08 79.8 86.98 64.7 86.98 64.7 71.89 49.61 71.89 49.61 102.08 79.8 102.08"/><rect class="cls-4" width="550.51" height="160.61"/></g></g></svg>