<svg xmlns="http://www.w3.org/2000/svg" viewBox="0 0 324 324"><defs><style>.cls-1{fill:#fff;}.cls-2{fill:#70a4d8;}.cls-3{fill:#1e1c26;}</style></defs><title>Strengthen</title><g id="Layer_2" data-name="Layer 2"><g id="Layer_1-2" data-name="Layer 1"><rect class="cls-1" width="324" height="324"/><path class="cls-2" d="M73.87,239.55a3.78,3.78,0,0,1-1.19-.21l-17.45-5.79L171,166.25l17.77,5.91a4.23,4.23,0,0,0,1.31.22h.07l-115,66.85A2.52,2.52,0,0,1,73.87,239.55Z"/><path class="cls-3" d="M171.05,166.46l17.68,5.88a5.23,5.23,0,0,0,.81.19L75.05,239.07a2.4,2.4,0,0,1-1.18.29,3.66,3.66,0,0,1-1.13-.19L55.68,233.5l115.37-67m-.05-.41L54.77,233.59l17.85,5.93a3.88,3.88,0,0,0,1.25.22,2.71,2.71,0,0,0,1.37-.35l116.23-67.54a2.82,2.82,0,0,1-1.37.35,4.17,4.17,0,0,1-1.25-.22L171,166.05Z"/><polygon class="cls-2" points="104.97 262.58 220.83 195.25 220.82 198.84 104.97 266.17 104.97 262.58"/><path class="cls-3" d="M220.64,195.58v3.16l-115.48,67.1v-3.15l115.48-67.11m.38-.66L104.79,262.47v4L221,199l0-4Z"/><path class="cls-2" d="M87.07,247.65a11.54,11.54,0,0,1-4-8L198.9,172.35a11.82,11.82,0,0,0,4.16,8.05l17.63,14.5L104.81,262.24Z"/><path class="cls-3" d="M198.73,172.67a12.14,12.14,0,0,0,4.21,7.87l17.42,14.33L104.82,262l-17.63-14.5a11.37,11.37,0,0,1-4-7.72l115.5-67.12m.35-.64L82.85,239.58A11.58,11.58,0,0,0,87,247.8l17.84,14.67L221,194.92l-17.84-14.67a11.58,11.58,0,0,1-4.1-8.22Z"/><path class="cls-2" d="M83.18,190.21A3.44,3.44,0,0,1,84.61,187l115-66.84a4.83,4.83,0,0,0-.6,2.47l-.14,49.25L83,239.25Z"/><path class="cls-3" d="M199.19,120.67a5.34,5.34,0,0,0-.34,2l-.14,49.15L83.23,238.92l.14-48.7a3.31,3.31,0,0,1,1.33-3l114.49-66.53m1.55-1.34L84.51,186.88A3.65,3.65,0,0,0,83,190.21l-.14,49.37L199.08,172l.14-49.36a3.68,3.68,0,0,1,1.52-3.34Z"/><polygon class="cls-2" points="105.19 188.76 221.04 121.44 221.03 125.02 105.17 192.34 105.19 188.76"/><path class="cls-3" d="M220.85,121.76v3.15L105.36,192v-3.15l115.48-67.11m.38-.65L105,188.65v4l116.22-67.54,0-4Z"/><path class="cls-3" d="M55,237.51v-3.66l17.6,5.85a4.26,4.26,0,0,0,1.31.23c1.86,0,3.07-1.52,3.07-3.87l.14-49.36a11.79,11.79,0,0,0-4.17-8.37L55.16,163.71V160.1l49.64,28.66v3.65l-17.61-5.84a4.27,4.27,0,0,0-1.32-.23c-1.86,0-3.06,1.52-3.07,3.87l-.14,49.37a11.73,11.73,0,0,0,4.17,8.36l17.77,14.62v3.61Z"/><path class="cls-3" d="M55.36,160.43l49.26,28.44v3.28l-17.36-5.76a4.36,4.36,0,0,0-1.38-.24c-2,0-3.25,1.6-3.25,4.06l-.14,49.37a11.91,11.91,0,0,0,4.23,8.51l17.7,14.56v3.2L55.14,237.41v-3.3l17.35,5.77a4.35,4.35,0,0,0,1.37.24c2,0,3.25-1.6,3.26-4.06l.14-49.36A12,12,0,0,0,73,178.18L55.35,163.62v-3.19m-.38-.65v4L72.8,178.47a11.62,11.62,0,0,1,4.1,8.22l-.14,49.37c0,2.3-1.16,3.68-2.89,3.68a3.88,3.88,0,0,1-1.25-.22l-17.85-5.93v4l50,28.88v-4L87,247.8a11.58,11.58,0,0,1-4.1-8.22L83,190.21c0-2.29,1.15-3.68,2.88-3.68a4,4,0,0,1,1.26.22L105,192.67v-4L55,159.78Z"/><polygon class="cls-2" points="55.36 159.78 171.21 92.45 220.85 121.11 105 188.44 55.36 159.78"/><path class="cls-3" d="M171.21,92.67l49.27,28.44L105,188.22,55.73,159.78,171.21,92.67m0-.43L55,159.78l50,28.87,116.23-67.54-50-28.87Z"/><path class="cls-2" d="M123.89,268.43a3.79,3.79,0,0,1-1.2-.21l-17.45-5.8L221,195.13l17.77,5.9a4.16,4.16,0,0,0,1.31.23h.06l-115,66.84A2.45,2.45,0,0,1,123.89,268.43Z"/><path class="cls-3" d="M221.06,195.33l17.69,5.88a4,4,0,0,0,.81.19l-114.5,66.54a2.26,2.26,0,0,1-1.17.3,3.7,3.7,0,0,1-1.14-.2l-17-5.67,115.36-67m0-.41L104.79,262.47l17.85,5.93a4.14,4.14,0,0,0,1.25.21,2.65,2.65,0,0,0,1.36-.35l116.23-67.54a2.65,2.65,0,0,1-1.36.35,4,4,0,0,1-1.26-.22L221,194.92Z"/><polygon class="cls-3" points="154.99 291.45 270.84 224.13 270.83 227.72 154.98 295.05 154.99 291.45"/><path class="cls-3" d="M270.65,224.45v3.16L155.17,294.72v-3.16l115.47-67.11m.38-.65L154.8,291.34v4L271,227.83v-4Z"/><path class="cls-2" d="M137.08,276.53a11.56,11.56,0,0,1-4-8l115.86-67.33a11.81,11.81,0,0,0,4.17,8l17.62,14.5L154.82,291.12Z"/><path class="cls-3" d="M248.74,201.55a12.11,12.11,0,0,0,4.22,7.87l17.41,14.33L154.84,290.89,137.2,276.38a11.37,11.37,0,0,1-4-7.71l115.5-67.12m.35-.64L132.87,268.45a11.58,11.58,0,0,0,4.1,8.22l17.83,14.67L271,223.8l-17.84-14.67a11.65,11.65,0,0,1-4.1-8.22Z"/><path class="cls-2" d="M133.19,219.09a3.47,3.47,0,0,1,1.43-3.18l115-66.84a4.78,4.78,0,0,0-.59,2.47l-.14,49.26L133.05,268.12Z"/><path class="cls-3" d="M249.2,149.54a5.58,5.58,0,0,0-.34,2l-.14,49.15L133.24,267.8l.14-48.71a3.3,3.3,0,0,1,1.33-3L249.2,149.54m1.55-1.33L134.52,215.75a3.65,3.65,0,0,0-1.51,3.34l-.14,49.36,116.22-67.54.14-49.37a3.65,3.65,0,0,1,1.52-3.33Z"/><polygon class="cls-2" points="155.2 217.64 271.05 150.31 271.04 153.89 155.19 221.22 155.2 217.64"/><path class="cls-3" d="M270.86,150.64v3.15l-115.47,67.1v-3.14l115.48-67.11m.38-.66L155,217.53v4L271.23,154v-4Z"/><path class="cls-3" d="M105,266.39v-3.66l17.61,5.85a4.14,4.14,0,0,0,1.31.22c1.85,0,3.06-1.52,3.07-3.87l.14-49.36a11.89,11.89,0,0,0-4.17-8.37l-17.76-14.62V189l49.64,28.66v3.65l-17.61-5.85a4.27,4.27,0,0,0-1.32-.23c-1.85,0-3.06,1.52-3.06,3.88l-.14,49.36a11.66,11.66,0,0,0,4.17,8.37l17.76,14.61v3.62Z"/><path class="cls-3" d="M105.37,189.3l49.26,28.45V221l-17.36-5.76a4.36,4.36,0,0,0-1.38-.24c-2,0-3.24,1.59-3.25,4.06l-.14,49.36a11.85,11.85,0,0,0,4.24,8.51l17.69,14.56v3.2l-49.27-28.44V263l17.36,5.76a4.26,4.26,0,0,0,1.37.24c2,0,3.25-1.59,3.25-4.06l.14-49.36a12,12,0,0,0-4.23-8.51l-17.69-14.57V189.3m-.37-.65v4l17.82,14.68a11.56,11.56,0,0,1,4.1,8.22l-.14,49.36c0,2.3-1.16,3.68-2.88,3.68a4.14,4.14,0,0,1-1.25-.21l-17.85-5.93v4l50,28.87v-4L137,276.67a11.58,11.58,0,0,1-4.1-8.22l.14-49.36c0-2.3,1.15-3.69,2.87-3.69a4,4,0,0,1,1.26.22L155,221.55v-4l-50-28.88Z"/><polygon class="cls-2" points="105.37 188.65 221.23 121.33 270.86 149.99 155.01 217.31 105.37 188.65"/><path class="cls-3" d="M221.23,121.54,270.49,150,155,217.1l-49.26-28.45,115.48-67.11m0-.43L105,188.65l50,28.88L271.24,150l-50-28.87Z"/><path class="cls-2" d="M101.15,175.94a4,4,0,0,1-1.19-.2l-17.45-5.8L198.3,102.65l17.77,5.9a4.14,4.14,0,0,0,1.31.22h.07l-115,66.85A2.55,2.55,0,0,1,101.15,175.94Z"/><path class="cls-3" d="M198.32,102.85,216,108.73a5.23,5.23,0,0,0,.81.19L102.33,175.46a2.3,2.3,0,0,1-1.18.3,3.64,3.64,0,0,1-1.13-.2L83,169.89l115.36-67m0-.41L82.05,170l17.85,5.93a4.14,4.14,0,0,0,1.25.21,2.71,2.71,0,0,0,1.37-.35l116.22-67.54a2.65,2.65,0,0,1-1.36.35,3.88,3.88,0,0,1-1.25-.22l-17.85-5.93Z"/><polygon class="cls-3" points="132.25 198.97 248.1 131.64 248.09 135.24 132.24 202.56 132.25 198.97"/><path class="cls-3" d="M247.92,132v3.16L132.43,202.24v-3.16L247.92,132m.37-.65L132.06,198.86v4l116.23-67.54v-4Z"/><path class="cls-2" d="M114.35,184a11.48,11.48,0,0,1-4-8l115.86-67.33a11.82,11.82,0,0,0,4.16,8L248,131.29,132.08,198.63Z"/><path class="cls-3" d="M226,109.06a12.11,12.11,0,0,0,4.21,7.87l17.42,14.33L132.1,198.41,114.47,183.9a11.29,11.29,0,0,1-4-7.72L226,109.06m.35-.64L110.13,176a11.58,11.58,0,0,0,4.1,8.22l17.83,14.67,116.23-67.54-17.83-14.68a11.56,11.56,0,0,1-4.1-8.22Z"/><path class="cls-2" d="M110.46,126.61a3.47,3.47,0,0,1,1.42-3.18l115-66.84a4.83,4.83,0,0,0-.59,2.47l-.14,49.26L110.32,175.64Z"/><path class="cls-3" d="M226.47,57.06a5.37,5.37,0,0,0-.35,2L226,108.21,110.51,175.32l.13-48.71a3.31,3.31,0,0,1,1.34-3L226.47,57.06M228,55.72,111.79,123.27a3.65,3.65,0,0,0-1.52,3.34L110.13,176l116.23-67.55.14-49.36A3.66,3.66,0,0,1,228,55.72Z"/><polygon class="cls-3" points="132.46 125.16 248.31 57.83 248.3 61.41 132.45 128.74 132.46 125.16"/><path class="cls-3" d="M248.12,58.16V61.3L132.64,128.41v-3.15l115.47-67.1m.38-.66L132.27,125.05v4L248.49,61.52v-4Z"/><path class="cls-3" d="M82.23,173.91v-3.66l17.6,5.84a4.21,4.21,0,0,0,1.31.23c1.86,0,3.06-1.52,3.07-3.87l.14-49.36a11.81,11.81,0,0,0-4.17-8.37L82.44,100.1V96.5l49.63,28.66v3.64L114.46,123a4.21,4.21,0,0,0-1.31-.23c-1.86,0-3.06,1.52-3.07,3.88L109.94,176a11.69,11.69,0,0,0,4.17,8.36L131.88,199v3.62Z"/><path class="cls-3" d="M82.63,96.82l49.27,28.44v3.28l-17.37-5.76a4.3,4.3,0,0,0-1.37-.24c-2,0-3.25,1.6-3.26,4.07L109.75,176a12,12,0,0,0,4.24,8.51L131.69,199v3.2L82.42,173.8v-3.29l17.35,5.76a4.3,4.3,0,0,0,1.37.24c2,0,3.25-1.6,3.26-4.06l.14-49.36a12,12,0,0,0-4.24-8.51L82.63,100V96.82m-.37-.65v4l17.82,14.68a11.54,11.54,0,0,1,4.1,8.22L104,172.45c0,2.3-1.15,3.68-2.88,3.68a4.14,4.14,0,0,1-1.25-.21L82.05,170v4l50,28.88v-4l-17.83-14.67a11.58,11.58,0,0,1-4.1-8.22l.14-49.36c0-2.3,1.15-3.69,2.88-3.69a3.88,3.88,0,0,1,1.25.22l17.86,5.92v-4l-50-28.88Z"/><polygon class="cls-2" points="82.64 96.17 198.49 28.84 248.13 57.5 132.27 124.83 82.64 96.17"/><path class="cls-3" d="M198.49,29.06,247.75,57.5,132.27,124.61,83,96.17,198.49,29.06m0-.43L82.26,96.17l50,28.88L248.5,57.5l-50-28.87Z"/></g></g></svg>