<?xml version="1.0" encoding="UTF-8"?>
<svg id="Layer_1" data-name="Layer 1" xmlns="http://www.w3.org/2000/svg" viewBox="0 0 342 193.5">
  <defs>
    <style>
      .cls-1 {
        fill: #fff;
        stroke-width: 0px;
      }
    </style>
  </defs>
  <path class="cls-1" d="m313.22,6.77c11.43,0,20.78,9.35,20.78,20.78v138.39c0,11.43-9.35,20.78-20.78,20.78H28.78c-11.43,0-20.78-9.35-20.78-20.78V27.55c0-11.43,9.35-20.78,20.78-20.78h284.44m0-2H28.78c-12.56,0-22.78,10.22-22.78,22.78v138.39c0,12.56,10.22,22.78,22.78,22.78h284.44c12.56,0,22.78-10.22,22.78-22.78V27.55c0-12.56-10.22-22.78-22.78-22.78h0Z"/>
  <g>
    <path class="cls-1" d="m21.09,72.96c-.34-1.2.34-2.06,1.54-2.06h5.74c.69,0,1.37.6,1.54,1.2l10.37,39.35h.34l13.97-40.47c.17-.51.77-.94,1.46-.94h1.54c.69,0,1.29.43,1.46.94l14.15,40.47h.34l10.2-39.35c.17-.6.86-1.2,1.54-1.2h5.74c1.2,0,1.89.86,1.54,2.06l-16.2,57.61c-.17.69-.86,1.2-1.54,1.2h-1.37c-.6,0-1.29-.43-1.46-.94l-15.09-42.61h-.43l-14.83,42.61c-.17.51-.86.94-1.46.94h-1.37c-.69,0-1.37-.51-1.54-1.2l-16.2-57.61Z"/>
    <path class="cls-1" d="m103.31,72.53c0-.86.69-1.63,1.63-1.63h19.2c10.37,0,17.83,6.86,17.83,15.86,0,6.6-4.89,11.32-8.92,13.63,4.54,1.89,10.72,6.09,10.72,13.97,0,9.6-7.89,16.55-18.69,16.55h-20.15c-.94,0-1.63-.77-1.63-1.63v-56.75Zm21.69,50.5c5.23,0,9.26-4.03,9.26-9.35s-4.97-9-10.55-9h-11.74v18.35h13.03Zm-1.37-26.06c5.49,0,8.83-4.03,8.83-9.17s-3.34-8.83-8.83-8.83h-11.57v18h11.57Z"/>
    <path class="cls-1" d="m156.46,72.53c0-.86.69-1.63,1.63-1.63h34.29c.94,0,1.63.77,1.63,1.63v4.8c0,.86-.69,1.63-1.63,1.63h-27.09v17.49h22.89c.86,0,1.63.77,1.63,1.63v4.8c0,.94-.77,1.63-1.63,1.63h-22.89v18.43h27.09c.94,0,1.63.77,1.63,1.63v4.72c0,.86-.69,1.63-1.63,1.63h-34.29c-.94,0-1.63-.77-1.63-1.63v-56.75Z"/>
    <path class="cls-1" d="m206.79,71.59c0-.86.77-1.54,1.63-1.54h2.14l37.21,43.04h.09v-40.55c0-.86.69-1.63,1.63-1.63h5.49c.86,0,1.63.77,1.63,1.63v57.7c0,.86-.77,1.54-1.63,1.54h-2.23l-37.21-44.24h-.09v41.75c0,.86-.69,1.63-1.63,1.63h-5.4c-.86,0-1.63-.77-1.63-1.63v-57.7Z"/>
    <path class="cls-1" d="m299.64,70.04c8.66,0,14.92,2.92,20.75,7.97.77.69.77,1.71.09,2.4l-3.77,3.86c-.6.77-1.37.77-2.14,0-4.03-3.52-9.52-5.74-14.83-5.74-12.26,0-21.52,10.29-21.52,22.29s9.35,22.21,21.6,22.21c6.26,0,10.63-2.49,14.75-5.66.77-.6,1.54-.51,2.06-.09l3.94,3.86c.69.6.51,1.71-.09,2.32-5.83,5.66-13.2,8.32-20.83,8.32-17.15,0-30.95-13.63-30.95-30.78s13.8-30.95,30.95-30.95Z"/>
  </g>
  <g>
    <path class="cls-1" d="m111.12,54.82c-1,1.2-2.13,2.09-3.39,2.66-1.26.57-2.63.86-4.09.86-1.56,0-2.99-.26-4.31-.79-1.32-.53-2.45-1.27-3.39-2.22-.94-.95-1.67-2.08-2.2-3.39-.53-1.3-.79-2.74-.79-4.29s.26-2.98.79-4.29c.53-1.3,1.26-2.43,2.2-3.39.94-.95,2.07-1.69,3.39-2.22,1.32-.53,2.76-.79,4.31-.79s2.88.31,4.16.92c1.28.62,2.41,1.48,3.41,2.6l-2.11,1.58c-.76-.85-1.6-1.52-2.51-2-.91-.48-1.89-.73-2.95-.73-1.23,0-2.35.22-3.34.66-1,.44-1.85,1.03-2.55,1.78s-1.24,1.63-1.61,2.64c-.37,1.01-.55,2.09-.55,3.23s.18,2.22.55,3.23c.37,1.01.9,1.89,1.61,2.64s1.55,1.34,2.55,1.78c1,.44,2.11.66,3.34.66,1.11,0,2.13-.26,3.06-.77.92-.51,1.72-1.2,2.4-2.05l2.02,1.67Z"/>
    <path class="cls-1" d="m133.25,53.99c-1.03,1.55-2.29,2.67-3.81,3.34-1.51.67-3.18,1.01-4.99,1.01-1.55,0-2.96-.26-4.22-.79-1.26-.53-2.35-1.27-3.26-2.22-.91-.95-1.61-2.08-2.09-3.39-.48-1.3-.73-2.75-.73-4.33s.25-2.93.75-4.22c.5-1.29,1.2-2.41,2.11-3.37.91-.95,1.98-1.7,3.21-2.24,1.23-.54,2.6-.81,4.09-.81s2.93.27,4.11.81c1.19.54,2.18,1.26,2.99,2.16.81.9,1.41,1.91,1.83,3.06.41,1.14.62,2.3.62,3.48v1.85h-17.07c0,.56.11,1.27.33,2.13.22.87.62,1.71,1.21,2.53s1.37,1.53,2.35,2.11c.98.59,2.25.88,3.81.88,1.35,0,2.65-.32,3.92-.97,1.26-.64,2.23-1.52,2.9-2.64l1.94,1.63Zm-2.02-8.05c0-.91-.18-1.76-.55-2.55-.37-.79-.87-1.49-1.5-2.09-.63-.6-1.38-1.08-2.24-1.43-.87-.35-1.78-.53-2.75-.53-1.44,0-2.63.29-3.59.88-.95.59-1.71,1.26-2.27,2.02s-.95,1.5-1.19,2.22c-.24.72-.35,1.21-.35,1.47h14.43Z"/>
    <path class="cls-1" d="m139.8,43.21c0-.38-.01-.84-.04-1.39s-.05-1.09-.07-1.65c-.02-.56-.04-1.08-.07-1.56-.03-.48-.04-.86-.04-1.12h2.64c.03.76.05,1.5.07,2.2s.05,1.16.11,1.36c.67-1.2,1.54-2.18,2.6-2.95s2.35-1.14,3.87-1.14c.26,0,.52.02.77.07s.51.1.77.15l-.31,2.6c-.35-.12-.69-.18-1.01-.18-1.14,0-2.13.18-2.97.55-.84.37-1.53.87-2.07,1.52-.54.65-.95,1.4-1.21,2.27-.26.87-.4,1.8-.4,2.79v11.09h-2.64v-14.61Z"/>
    <path class="cls-1" d="m164.44,39.86h-5.81v13.24c0,.91.25,1.61.75,2.11.5.5,1.19.75,2.07.75.5,0,1-.07,1.52-.2.51-.13,1-.3,1.47-.51l.22,2.38c-.5.18-1.07.34-1.72.48-.65.15-1.22.22-1.72.22-.94,0-1.75-.14-2.42-.42-.67-.28-1.22-.65-1.63-1.12-.41-.47-.71-1.02-.9-1.65s-.29-1.31-.29-2.05v-13.24h-4.4v-2.38h4.4v-5.85h2.64v5.85h5.81v2.38Z"/>
    <path class="cls-1" d="m169.02,29.43c0-.56.19-1.03.57-1.41s.85-.57,1.41-.57,1.03.19,1.41.57c.38.38.57.85.57,1.41s-.19,1.03-.57,1.41-.85.57-1.41.57-1.03-.19-1.41-.57c-.38-.38-.57-.85-.57-1.41Zm.66,8.05h2.64v20.33h-2.64v-20.33Z"/>
    <path class="cls-1" d="m181.34,39.86h-4.22v-2.38h4.22v-6.64c0-1.32.2-2.41.59-3.28.4-.87.89-1.56,1.47-2.09.59-.53,1.24-.9,1.96-1.12.72-.22,1.4-.33,2.05-.33,1.23,0,2.24.18,3.04.53l-.53,2.29c-.59-.29-1.38-.44-2.38-.44-2.38,0-3.56,1.8-3.56,5.41v5.68h4.75v2.38h-4.75v17.95h-2.64v-17.95Z"/>
    <path class="cls-1" d="m192.69,29.43c0-.56.19-1.03.57-1.41s.85-.57,1.41-.57,1.03.19,1.41.57c.38.38.57.85.57,1.41s-.19,1.03-.57,1.41-.85.57-1.41.57-1.03-.19-1.41-.57c-.38-.38-.57-.85-.57-1.41Zm.66,8.05h2.64v20.33h-2.64v-20.33Z"/>
    <path class="cls-1" d="m221.47,53.99c-1.03,1.55-2.29,2.67-3.81,3.34-1.51.67-3.18,1.01-4.99,1.01-1.55,0-2.96-.26-4.22-.79-1.26-.53-2.35-1.27-3.26-2.22-.91-.95-1.61-2.08-2.09-3.39-.48-1.3-.73-2.75-.73-4.33s.25-2.93.75-4.22c.5-1.29,1.2-2.41,2.11-3.37.91-.95,1.98-1.7,3.21-2.24,1.23-.54,2.6-.81,4.09-.81s2.93.27,4.11.81c1.19.54,2.18,1.26,2.99,2.16.81.9,1.41,1.91,1.83,3.06.41,1.14.62,2.3.62,3.48v1.85h-17.07c0,.56.11,1.27.33,2.13.22.87.62,1.71,1.21,2.53s1.37,1.53,2.35,2.11c.98.59,2.25.88,3.81.88,1.35,0,2.65-.32,3.92-.97,1.26-.64,2.23-1.52,2.9-2.64l1.94,1.63Zm-2.02-8.05c0-.91-.18-1.76-.55-2.55-.37-.79-.87-1.49-1.5-2.09-.63-.6-1.38-1.08-2.24-1.43-.87-.35-1.78-.53-2.75-.53-1.44,0-2.63.29-3.59.88-.95.59-1.71,1.26-2.27,2.02s-.95,1.5-1.19,2.22c-.24.72-.35,1.21-.35,1.47h14.43Z"/>
    <path class="cls-1" d="m245.8,54.25h-.09c-.41.7-.92,1.31-1.54,1.83-.62.51-1.28.94-2,1.28s-1.47.59-2.27.75c-.79.16-1.57.24-2.33.24-1.56,0-2.99-.26-4.31-.79-1.32-.53-2.45-1.27-3.39-2.22-.94-.95-1.67-2.08-2.2-3.39-.53-1.3-.79-2.74-.79-4.29s.26-2.98.79-4.29c.53-1.3,1.26-2.43,2.2-3.39.94-.95,2.07-1.69,3.39-2.22,1.32-.53,2.76-.79,4.31-.79.76,0,1.54.08,2.33.24s1.55.41,2.27.75c.72.34,1.39.76,2,1.28.62.51,1.13,1.12,1.54,1.83h.09v-16.5h2.64v33.26h-2.64v-3.56Zm.26-6.6c0-1.14-.22-2.22-.66-3.23-.44-1.01-1.04-1.89-1.8-2.64s-1.66-1.34-2.68-1.78c-1.03-.44-2.14-.66-3.34-.66s-2.35.22-3.34.66c-1,.44-1.85,1.03-2.55,1.78s-1.24,1.63-1.61,2.64c-.37,1.01-.55,2.09-.55,3.23s.18,2.22.55,3.23c.37,1.01.9,1.89,1.61,2.64s1.55,1.34,2.55,1.78c1,.44,2.11.66,3.34.66s2.32-.22,3.34-.66c1.03-.44,1.92-1.03,2.68-1.78s1.36-1.63,1.8-2.64c.44-1.01.66-2.09.66-3.23Z"/>
  </g>
  <g>
    <path class="cls-1" d="m28.16,146.49c-.07-.26.07-.44.33-.44h.77c.15,0,.29.13.33.26l2.55,9.51h.07l3.07-9.75c.04-.11.15-.2.31-.2h.33c.15,0,.28.09.31.2l3.12,9.75h.07l2.5-9.51c.04-.13.18-.26.33-.26h.77c.26,0,.4.18.33.44l-3.47,12.34c-.04.15-.18.26-.33.26h-.29c-.13,0-.26-.09-.31-.2l-3.18-9.93h-.09l-3.12,9.93c-.06.11-.18.2-.31.2h-.29c-.15,0-.29-.11-.33-.26l-3.47-12.34Z"/>
    <path class="cls-1" d="m51.86,145.86c3.67,0,6.61,2.96,6.61,6.63s-2.94,6.59-6.61,6.59-6.59-2.92-6.59-6.59,2.92-6.63,6.59-6.63Zm0,11.93c2.92,0,5.32-2.39,5.32-5.3s-2.41-5.34-5.32-5.34-5.3,2.42-5.3,5.34,2.39,5.3,5.3,5.3Z"/>
    <path class="cls-1" d="m63.11,146.12c.04-.15.18-.26.33-.26h.29c.13,0,.28.09.31.2l3.64,10.11h.09l3.58-10.11c.04-.11.18-.2.31-.2h.29c.15,0,.29.11.33.26l2.37,12.34c.06.26-.06.44-.33.44h-.73c-.15,0-.29-.13-.33-.26l-1.63-9.45h-.07l-3.38,9.69c-.04.11-.2.2-.31.2h-.33c-.11,0-.28-.09-.31-.2l-3.41-9.69h-.07l-1.6,9.45c-.02.13-.18.26-.33.26h-.73c-.28,0-.39-.18-.33-.44l2.37-12.34Z"/>
    <path class="cls-1" d="m77.86,146.39c0-.18.15-.35.35-.35h7.23c.2,0,.35.17.35.35v.53c0,.18-.15.35-.35.35h-6.17v4.48h5.27c.18,0,.35.17.35.35v.53c0,.2-.16.35-.35.35h-5.27v4.68h6.17c.2,0,.35.17.35.35v.53c0,.18-.15.35-.35.35h-7.23c-.2,0-.35-.17-.35-.35v-12.15Z"/>
    <path class="cls-1" d="m89.1,146.19c0-.18.16-.33.35-.33h.46l8.28,10.32h.04v-9.78c0-.18.15-.35.35-.35h.64c.18,0,.35.17.35.35v12.35c0,.18-.17.33-.35.33h-.33l-8.43-10.52h-.02v9.99c0,.18-.15.35-.35.35h-.64c-.18,0-.35-.17-.35-.35v-12.35Z"/>
    <path class="cls-1" d="m102.54,150.67c-.09-.09-.07-.28.11-.44.18-.17,1.14-.97,1.14-2.31-.07.02-.15.02-.22.02-.57,0-1.05-.48-1.05-1.05s.48-1.05,1.05-1.05,1.21.33,1.21,1.65c0,1.52-.95,2.85-1.54,3.4-.18.17-.33.15-.44.04l-.26-.26Z"/>
    <path class="cls-1" d="m106.82,156.97c.09-.11.18-.24.28-.35.18-.24.39-.39.64-.17.13.11,1.47,1.4,3.1,1.4,1.49,0,2.46-.94,2.46-2.02,0-1.27-1.1-2.02-3.21-2.9-2.02-.88-3.23-1.71-3.23-3.8,0-1.25.99-3.27,3.91-3.27,1.8,0,3.14.94,3.14.94.11.06.33.28.11.62-.07.11-.15.24-.22.35-.17.26-.35.33-.64.17-.13-.07-1.29-.84-2.41-.84-1.95,0-2.53,1.25-2.53,2.02,0,1.23.94,1.95,2.48,2.59,2.48,1.01,4.08,1.95,4.08,4.08,0,1.91-1.82,3.3-3.97,3.3s-3.64-1.27-3.87-1.49c-.15-.13-.33-.28-.11-.62Z"/>
    <path class="cls-1" d="m122.25,146.39c0-.18.15-.35.35-.35h4.02c2.24,0,3.76,1.45,3.76,3.38,0,1.41-.94,2.44-1.8,2.94.97.4,2.2,1.3,2.2,2.99,0,2.06-1.63,3.54-4,3.54h-4.19c-.2,0-.35-.17-.35-.35v-12.15Zm4.68,11.27c1.34,0,2.31-1.01,2.31-2.33s-1.19-2.26-2.62-2.26h-3.03v4.59h3.34Zm-.31-5.86c1.41,0,2.2-1.01,2.2-2.29s-.79-2.2-2.2-2.2h-2.99v4.5h2.99Z"/>
    <path class="cls-1" d="m133.93,146.39c0-.18.17-.35.35-.35h.7c.2,0,.35.17.35.35v7.65c0,2.09,1.3,3.73,3.45,3.73s3.49-1.6,3.49-3.69v-7.69c0-.18.15-.35.35-.35h.7c.18,0,.35.17.35.35v7.77c0,2.79-1.98,4.92-4.88,4.92s-4.85-2.13-4.85-4.92v-7.77Z"/>
    <path class="cls-1" d="m146.79,156.97c.09-.11.18-.24.28-.35.18-.24.39-.39.64-.17.13.11,1.47,1.4,3.1,1.4,1.49,0,2.46-.94,2.46-2.02,0-1.27-1.1-2.02-3.21-2.9-2.02-.88-3.23-1.71-3.23-3.8,0-1.25.99-3.27,3.91-3.27,1.8,0,3.14.94,3.14.94.11.06.33.28.11.62-.07.11-.15.24-.22.35-.17.26-.35.33-.64.17-.13-.07-1.29-.84-2.41-.84-1.95,0-2.53,1.25-2.53,2.02,0,1.23.94,1.95,2.48,2.59,2.48,1.01,4.08,1.95,4.08,4.08,0,1.91-1.82,3.3-3.97,3.3s-3.64-1.27-3.87-1.49c-.15-.13-.33-.28-.11-.62Z"/>
    <path class="cls-1" d="m157.77,146.39c0-.18.16-.35.35-.35h.73c.18,0,.35.17.35.35v12.15c0,.18-.17.35-.35.35h-.73c-.18,0-.35-.17-.35-.35v-12.15Z"/>
    <path class="cls-1" d="m163.32,146.19c0-.18.16-.33.35-.33h.46l8.28,10.32h.04v-9.78c0-.18.15-.35.35-.35h.64c.18,0,.35.17.35.35v12.35c0,.18-.17.33-.35.33h-.33l-8.43-10.52h-.02v9.99c0,.18-.15.35-.35.35h-.64c-.18,0-.35-.17-.35-.35v-12.35Z"/>
    <path class="cls-1" d="m177.9,146.39c0-.18.15-.35.35-.35h7.23c.2,0,.35.17.35.35v.53c0,.18-.15.35-.35.35h-6.17v4.48h5.27c.18,0,.35.17.35.35v.53c0,.2-.16.35-.35.35h-5.27v4.68h6.17c.2,0,.35.17.35.35v.53c0,.18-.15.35-.35.35h-7.23c-.2,0-.35-.17-.35-.35v-12.15Z"/>
    <path class="cls-1" d="m188.32,156.97c.09-.11.18-.24.28-.35.18-.24.39-.39.64-.17.13.11,1.47,1.4,3.1,1.4,1.49,0,2.46-.94,2.46-2.02,0-1.27-1.1-2.02-3.21-2.9-2.02-.88-3.23-1.71-3.23-3.8,0-1.25.99-3.27,3.91-3.27,1.8,0,3.14.94,3.14.94.11.06.33.28.11.62-.07.11-.15.24-.22.35-.17.26-.35.33-.64.17-.13-.07-1.29-.84-2.41-.84-1.95,0-2.53,1.25-2.53,2.02,0,1.23.94,1.95,2.48,2.59,2.48,1.01,4.08,1.95,4.08,4.08,0,1.91-1.82,3.3-3.97,3.3s-3.64-1.27-3.87-1.49c-.15-.13-.33-.28-.11-.62Z"/>
    <path class="cls-1" d="m198.47,156.97c.09-.11.18-.24.28-.35.18-.24.39-.39.64-.17.13.11,1.47,1.4,3.1,1.4,1.49,0,2.46-.94,2.46-2.02,0-1.27-1.1-2.02-3.21-2.9-2.02-.88-3.23-1.71-3.23-3.8,0-1.25.99-3.27,3.91-3.27,1.8,0,3.14.94,3.14.94.11.06.33.28.11.62-.07.11-.15.24-.22.35-.17.26-.35.33-.64.17-.13-.07-1.29-.84-2.41-.84-1.95,0-2.53,1.25-2.53,2.02,0,1.23.94,1.95,2.48,2.59,2.48,1.01,4.08,1.95,4.08,4.08,0,1.91-1.82,3.3-3.97,3.3s-3.64-1.27-3.87-1.49c-.15-.13-.33-.28-.11-.62Z"/>
    <path class="cls-1" d="m213.9,146.39c0-.18.15-.35.35-.35h7.23c.2,0,.35.17.35.35v.53c0,.18-.15.35-.35.35h-6.17v4.48h5.27c.18,0,.35.17.35.35v.53c0,.2-.16.35-.35.35h-5.27v4.68h6.17c.2,0,.35.17.35.35v.53c0,.18-.15.35-.35.35h-7.23c-.2,0-.35-.17-.35-.35v-12.15Z"/>
    <path class="cls-1" d="m225.14,146.19c0-.18.16-.33.35-.33h.46l8.28,10.32h.04v-9.78c0-.18.15-.35.35-.35h.64c.18,0,.35.17.35.35v12.35c0,.18-.17.33-.35.33h-.33l-8.43-10.52h-.02v9.99c0,.18-.15.35-.35.35h-.64c-.18,0-.35-.17-.35-.35v-12.35Z"/>
    <path class="cls-1" d="m241.54,147.28h-3.19c-.2,0-.35-.17-.35-.35v-.53c0-.18.15-.35.35-.35h7.78c.2,0,.35.17.35.35v.53c0,.18-.15.35-.35.35h-3.19v11.27c0,.18-.17.35-.35.35h-.7c-.18,0-.35-.17-.35-.35v-11.27Z"/>
    <path class="cls-1" d="m248.87,146.39c0-.18.15-.35.35-.35h7.23c.2,0,.35.17.35.35v.53c0,.18-.15.35-.35.35h-6.17v4.48h5.27c.18,0,.35.17.35.35v.53c0,.2-.16.35-.35.35h-5.27v4.68h6.17c.2,0,.35.17.35.35v.53c0,.18-.15.35-.35.35h-7.23c-.2,0-.35-.17-.35-.35v-12.15Z"/>
    <path class="cls-1" d="m260.11,146.39c0-.18.15-.35.35-.35h4.75c2.2,0,4,1.73,4,3.91,0,1.69-1.12,3.1-2.72,3.75l2.51,4.66c.13.24,0,.53-.31.53h-.94c-.17,0-.26-.09-.29-.17l-2.44-4.86h-3.51v4.68c0,.18-.16.35-.35.35h-.72c-.2,0-.35-.17-.35-.35v-12.15Zm5.01,6.26c1.41,0,2.64-1.17,2.64-2.68,0-1.4-1.23-2.59-2.64-2.59h-3.56v5.27h3.56Z"/>
    <path class="cls-1" d="m272.62,146.39c0-.18.15-.35.35-.35h4.06c2.26,0,4.11,1.84,4.11,4.06s-1.85,4.13-4.09,4.13h-3.03v4.31c0,.18-.16.35-.35.35h-.7c-.2,0-.35-.17-.35-.35v-12.15Zm4.31,6.48c1.51,0,2.79-1.23,2.79-2.81,0-1.49-1.29-2.62-2.79-2.62h-2.92v5.43h2.92Z"/>
    <path class="cls-1" d="m283.94,146.39c0-.18.15-.35.35-.35h4.75c2.2,0,4,1.73,4,3.91,0,1.69-1.12,3.1-2.72,3.75l2.51,4.66c.13.24,0,.53-.31.53h-.94c-.17,0-.26-.09-.29-.17l-2.44-4.86h-3.51v4.68c0,.18-.16.35-.35.35h-.72c-.2,0-.35-.17-.35-.35v-12.15Zm5.01,6.26c1.41,0,2.64-1.17,2.64-2.68,0-1.4-1.23-2.59-2.64-2.59h-3.56v5.27h3.56Z"/>
    <path class="cls-1" d="m296.44,146.39c0-.18.16-.35.35-.35h.73c.18,0,.35.17.35.35v12.15c0,.18-.17.35-.35.35h-.73c-.18,0-.35-.17-.35-.35v-12.15Z"/>
    <path class="cls-1" d="m301.16,156.97c.09-.11.18-.24.28-.35.18-.24.39-.39.64-.17.13.11,1.47,1.4,3.1,1.4,1.49,0,2.46-.94,2.46-2.02,0-1.27-1.1-2.02-3.21-2.9-2.02-.88-3.23-1.71-3.23-3.8,0-1.25.99-3.27,3.91-3.27,1.8,0,3.14.94,3.14.94.11.06.33.28.11.62-.07.11-.15.24-.22.35-.17.26-.35.33-.64.17-.13-.07-1.29-.84-2.41-.84-1.95,0-2.53,1.25-2.53,2.02,0,1.23.94,1.95,2.48,2.59,2.48,1.01,4.08,1.95,4.08,4.08,0,1.91-1.82,3.3-3.97,3.3s-3.64-1.27-3.87-1.49c-.15-.13-.33-.28-.11-.62Z"/>
    <path class="cls-1" d="m312.15,146.39c0-.18.15-.35.35-.35h7.23c.2,0,.35.17.35.35v.53c0,.18-.15.35-.35.35h-6.17v4.48h5.27c.18,0,.35.17.35.35v.53c0,.2-.16.35-.35.35h-5.27v4.68h6.17c.2,0,.35.17.35.35v.53c0,.18-.15.35-.35.35h-7.23c-.2,0-.35-.17-.35-.35v-12.15Z"/>
  </g>
  <g>
    <path class="cls-1" d="m292.04,98.76c.82.3,1.66.78,2.48,1.45.03-.04.07-.07.1-.11.3-.35.57-.74.81-1.15.3-.51.54-1.07.71-1.65.06-.19.11-.38.15-.58l.07-.34c.04-.2.07-.35.09-.51.1-.76.1-1.57.02-2.41-.09-.86-.28-1.78-.56-2.72-.04-.13-.1-.26-.19-.41-.24-.41-.63-.71-1.08-.85-.37-.11-.71-.11-1.08,0-.48.14-.88.47-1.12.91-.24.44-.29.95-.15,1.44.05.17.1.34.14.51.05.19.09.37.13.55.03.14.05.27.07.4.02.12.04.24.05.36.09.76.08,1.42-.03,2.04-.05.28-.12.52-.2.75-.08.22-.18.42-.29.63-.14.24-.31.47-.51.69-.16.18-.34.35-.54.5-.05.04-.09.07-.14.11.18.06.35.13.5.19l.55.21Z"/>
    <path class="cls-1" d="m287.35,96.33c1.28,0,2.31-1.04,2.31-2.31s-1.04-2.31-2.31-2.31-2.31,1.04-2.31,2.31,1.04,2.31,2.31,2.31Z"/>
    <path class="cls-1" d="m292.32,105.97c.14.24.25.5.35.78.07.23.13.47.17.72,0,.06.02.11.02.17.13-.11.26-.21.38-.31l.49-.4c.67-.56,1.51-1.04,2.5-1.43-.02-.05-.03-.09-.05-.14-.16-.44-.36-.87-.59-1.27-.3-.51-.66-1-1.07-1.44-.14-.15-.28-.28-.43-.42l-.26-.23c-.15-.13-.27-.23-.39-.33-.61-.46-1.31-.88-2.08-1.22-.79-.35-1.68-.65-2.63-.88-.12-.03-.25-.04-.41-.04-.52,0-.97.19-1.32.51-.28.27-.45.56-.54.93-.12.49-.04.99.23,1.42.26.43.68.73,1.17.85.17.04.34.09.51.13.19.05.37.11.54.17.13.04.26.09.39.14.11.04.23.09.34.13.7.29,1.27.63,1.75,1.04.22.19.39.37.55.55.15.18.28.37.4.57Z"/>
    <path class="cls-1" d="m288.43,106.61c-.35-.2-.75-.31-1.15-.31-.83,0-1.6.44-2.01,1.16-.31.53-.39,1.16-.23,1.76.16.6.54,1.1,1.08,1.4.35.2.75.31,1.15.31.83,0,1.6-.44,2.01-1.16.31-.53.39-1.16.23-1.75-.16-.6-.54-1.1-1.08-1.41Z"/>
    <path class="cls-1" d="m294.19,113.38c.51-.01.97-.22,1.32-.59.13-.13.25-.26.37-.38.14-.13.28-.26.41-.38.1-.09.21-.18.31-.27.08-.07.18-.14.27-.21.62-.47,1.2-.8,1.79-1.01.27-.09.51-.16.76-.2.51-.09,1.02-.08,1.54.03.24.05.47.12.71.21.05.02.11.04.16.06-.03-.17-.06-.34-.08-.49l-.1-.62c-.15-.86-.15-1.83.01-2.87-.05-.01-.1-.02-.15-.03-.46-.08-.93-.13-1.39-.13-.6,0-1.19.07-1.78.21-.2.04-.39.1-.58.16l-.33.11c-.21.07-.35.12-.48.18-.71.3-1.41.7-2.1,1.19-.71.51-1.41,1.13-2.08,1.84-.09.1-.18.22-.26.37-.23.42-.3.9-.2,1.36.09.37.26.67.53.93.35.33.81.51,1.29.51h.06Z"/>
    <path class="cls-1" d="m299.87,113.67c-.4,0-.8.11-1.15.31-1.11.64-1.49,2.06-.85,3.16.41.71,1.18,1.16,2.01,1.16.4,0,.8-.11,1.15-.31,1.1-.64,1.49-2.06.85-3.16-.41-.71-1.18-1.16-2.01-1.16Z"/>
    <path class="cls-1" d="m307.87,104.01c-.82-.3-1.66-.78-2.48-1.45-.03.04-.07.07-.1.11-.3.35-.57.74-.81,1.15-.3.51-.54,1.07-.71,1.65-.06.19-.11.39-.15.58l-.07.34c-.04.22-.07.36-.09.5-.1.76-.11,1.57-.02,2.41.09.86.27,1.78.56,2.72.04.13.1.26.19.41.24.41.63.71,1.08.85.37.11.71.11,1.08,0,.48-.14.88-.47,1.12-.91.24-.44.29-.95.15-1.43-.05-.17-.1-.34-.14-.51-.05-.19-.09-.37-.13-.55-.03-.14-.05-.27-.08-.4-.02-.12-.04-.24-.05-.36-.09-.76-.08-1.42.03-2.04.05-.28.12-.52.21-.76.08-.22.17-.42.29-.63.14-.24.31-.47.51-.69.16-.18.34-.35.54-.5.05-.04.09-.07.14-.11-.17-.06-.34-.13-.49-.18l-.56-.21Z"/>
    <path class="cls-1" d="m312.56,106.44c-1.28,0-2.31,1.04-2.31,2.31s1.04,2.31,2.31,2.31,2.31-1.04,2.31-2.31-1.04-2.31-2.31-2.31Z"/>
    <path class="cls-1" d="m311.64,103.24c.48,0,.93-.19,1.28-.51.28-.26.45-.56.54-.93.12-.49.04-1-.23-1.42-.26-.43-.68-.73-1.17-.85-.17-.04-.34-.09-.51-.13-.19-.05-.37-.11-.54-.17-.13-.04-.26-.09-.39-.14-.11-.04-.23-.09-.34-.13-.7-.29-1.27-.64-1.75-1.04-.22-.19-.39-.37-.55-.56-.15-.18-.28-.36-.39-.57-.14-.25-.26-.51-.35-.79-.07-.23-.13-.47-.17-.72,0-.06-.02-.11-.02-.17-.14.12-.28.23-.4.33l-.47.39c-.67.56-1.51,1.04-2.49,1.43.02.05.03.09.05.14.15.44.35.86.59,1.27.29.51.66,1,1.07,1.44.14.15.28.28.43.42l.26.23c.15.13.27.23.39.33.61.47,1.31.88,2.08,1.22.79.35,1.68.65,2.63.88.12.03.25.04.41.04h.04Z"/>
    <path class="cls-1" d="m311.48,96.16c1.07.62,2.55.22,3.16-.85.64-1.11.26-2.52-.85-3.16-.35-.2-.75-.31-1.15-.31-.83,0-1.6.44-2.01,1.16-.31.53-.39,1.16-.23,1.76.16.6.54,1.1,1.08,1.4Z"/>
    <path class="cls-1" d="m298.27,93.22c.15.86.15,1.83-.01,2.87.05,0,.1.02.14.03,1.04.19,2.14.16,3.18-.08.19-.04.39-.1.57-.16l.33-.11c.2-.07.34-.12.48-.18.71-.3,1.42-.7,2.1-1.19.7-.51,1.4-1.12,2.08-1.84.09-.1.17-.21.26-.37.23-.41.3-.9.19-1.36-.09-.38-.26-.67-.53-.94-.35-.33-.81-.51-1.29-.51-.56.01-1.03.22-1.37.59-.12.13-.24.25-.37.37-.14.14-.28.26-.42.39-.1.09-.21.18-.31.27-.09.07-.19.15-.28.23-.61.46-1.19.78-1.78.99-.27.09-.51.16-.76.2-.5.08-1.01.08-1.54-.03-.24-.05-.47-.12-.71-.21-.05-.02-.11-.04-.16-.06.03.18.06.36.09.53l.1.58Z"/>
    <path class="cls-1" d="m301.19,88.79c1.11-.64,1.49-2.06.85-3.16-.41-.71-1.18-1.16-2.01-1.16-.4,0-.8.11-1.15.31-.54.31-.92.81-1.08,1.41-.16.6-.08,1.22.23,1.76.61,1.06,2.09,1.46,3.16.85Z"/>
  </g>
</svg>